<mxfile host="app.diagrams.net" modified="2020-11-24T20:00:22.584Z" agent="5.0 (Windows NT 10.0; Win64; x64) AppleWebKit/537.36 (KHTML, like Gecko) Chrome/87.0.4280.66 Safari/537.36" etag="P_qZJqNmeXv7WjJHxB0G" version="13.10.2" type="github">
  <diagram id="DNTaZWTEd0u4zbLsqwlb" name="Page-1">
    <mxGraphModel dx="1673" dy="896" grid="1" gridSize="10" guides="1" tooltips="1" connect="1" arrows="1" fold="1" page="1" pageScale="1" pageWidth="1600" pageHeight="1200" math="0" shadow="0">
      <root>
        <mxCell id="0" />
        <mxCell id="1" parent="0" />
        <mxCell id="QoyAXV0Lv4tiNZ6bCbWZ-5" style="edgeStyle=orthogonalEdgeStyle;rounded=0;orthogonalLoop=1;jettySize=auto;html=1;" parent="1" source="QoyAXV0Lv4tiNZ6bCbWZ-1" target="QoyAXV0Lv4tiNZ6bCbWZ-4" edge="1">
          <mxGeometry relative="1" as="geometry" />
        </mxCell>
        <mxCell id="QoyAXV0Lv4tiNZ6bCbWZ-1" value="Start" style="rounded=1;whiteSpace=wrap;html=1;fillColor=#d5e8d4;strokeColor=#82b366;gradientColor=#97d077;" parent="1" vertex="1">
          <mxGeometry x="20" y="10" width="120" height="60" as="geometry" />
        </mxCell>
        <mxCell id="QoyAXV0Lv4tiNZ6bCbWZ-7" value="N" style="edgeStyle=orthogonalEdgeStyle;rounded=0;orthogonalLoop=1;jettySize=auto;html=1;" parent="1" source="QoyAXV0Lv4tiNZ6bCbWZ-4" target="QoyAXV0Lv4tiNZ6bCbWZ-6" edge="1">
          <mxGeometry relative="1" as="geometry" />
        </mxCell>
        <mxCell id="QoyAXV0Lv4tiNZ6bCbWZ-9" value="s" style="edgeStyle=orthogonalEdgeStyle;rounded=0;orthogonalLoop=1;jettySize=auto;html=1;" parent="1" source="QoyAXV0Lv4tiNZ6bCbWZ-4" target="QoyAXV0Lv4tiNZ6bCbWZ-8" edge="1">
          <mxGeometry relative="1" as="geometry" />
        </mxCell>
        <mxCell id="QoyAXV0Lv4tiNZ6bCbWZ-4" value="&lt;font style=&quot;font-size: 11px&quot;&gt;JÃ¡ &lt;br&gt;cadastrado?&lt;/font&gt;" style="rhombus;whiteSpace=wrap;html=1;" parent="1" vertex="1">
          <mxGeometry x="40" y="100" width="80" height="80" as="geometry" />
        </mxCell>
        <mxCell id="LO8F0YCsVuk2DNSk5QP--5" style="edgeStyle=orthogonalEdgeStyle;rounded=0;orthogonalLoop=1;jettySize=auto;html=1;" edge="1" parent="1" source="QoyAXV0Lv4tiNZ6bCbWZ-6" target="LO8F0YCsVuk2DNSk5QP--2">
          <mxGeometry relative="1" as="geometry" />
        </mxCell>
        <mxCell id="QoyAXV0Lv4tiNZ6bCbWZ-6" value="Singn Up Page" style="rounded=0;whiteSpace=wrap;html=1;" parent="1" vertex="1">
          <mxGeometry x="20" y="250" width="120" height="60" as="geometry" />
        </mxCell>
        <mxCell id="LO8F0YCsVuk2DNSk5QP--33" value="" style="edgeStyle=orthogonalEdgeStyle;rounded=0;orthogonalLoop=1;jettySize=auto;html=1;" edge="1" parent="1" source="QoyAXV0Lv4tiNZ6bCbWZ-8" target="LO8F0YCsVuk2DNSk5QP--32">
          <mxGeometry relative="1" as="geometry" />
        </mxCell>
        <mxCell id="QoyAXV0Lv4tiNZ6bCbWZ-8" value="Sign In Page" style="rounded=0;whiteSpace=wrap;html=1;" parent="1" vertex="1">
          <mxGeometry x="290" y="110" width="120" height="60" as="geometry" />
        </mxCell>
        <mxCell id="LO8F0YCsVuk2DNSk5QP--8" value="s" style="edgeStyle=orthogonalEdgeStyle;rounded=0;orthogonalLoop=1;jettySize=auto;html=1;" edge="1" parent="1" source="LO8F0YCsVuk2DNSk5QP--2" target="LO8F0YCsVuk2DNSk5QP--6">
          <mxGeometry relative="1" as="geometry" />
        </mxCell>
        <mxCell id="LO8F0YCsVuk2DNSk5QP--20" value="n" style="edgeStyle=orthogonalEdgeStyle;rounded=0;orthogonalLoop=1;jettySize=auto;html=1;" edge="1" parent="1" source="LO8F0YCsVuk2DNSk5QP--2" target="LO8F0YCsVuk2DNSk5QP--19">
          <mxGeometry relative="1" as="geometry" />
        </mxCell>
        <mxCell id="LO8F0YCsVuk2DNSk5QP--2" value="fornecer credenciais&lt;br&gt;?" style="rhombus;whiteSpace=wrap;html=1;" vertex="1" parent="1">
          <mxGeometry x="40" y="340" width="80" height="80" as="geometry" />
        </mxCell>
        <mxCell id="LO8F0YCsVuk2DNSk5QP--10" value="" style="edgeStyle=orthogonalEdgeStyle;rounded=0;orthogonalLoop=1;jettySize=auto;html=1;entryX=0.5;entryY=0;entryDx=0;entryDy=0;" edge="1" parent="1" source="LO8F0YCsVuk2DNSk5QP--6" target="LO8F0YCsVuk2DNSk5QP--17">
          <mxGeometry relative="1" as="geometry">
            <mxPoint x="220" y="470" as="targetPoint" />
          </mxGeometry>
        </mxCell>
        <mxCell id="LO8F0YCsVuk2DNSk5QP--11" value="s" style="edgeLabel;html=1;align=center;verticalAlign=middle;resizable=0;points=[];" vertex="1" connectable="0" parent="LO8F0YCsVuk2DNSk5QP--10">
          <mxGeometry x="-0.305" y="2" relative="1" as="geometry">
            <mxPoint x="-2" as="offset" />
          </mxGeometry>
        </mxCell>
        <mxCell id="LO8F0YCsVuk2DNSk5QP--6" value="Entrar com credenciais" style="shape=parallelogram;perimeter=parallelogramPerimeter;whiteSpace=wrap;html=1;fixedSize=1;" vertex="1" parent="1">
          <mxGeometry x="160" y="350" width="120" height="60" as="geometry" />
        </mxCell>
        <mxCell id="LO8F0YCsVuk2DNSk5QP--15" value="" style="edgeStyle=orthogonalEdgeStyle;rounded=0;orthogonalLoop=1;jettySize=auto;html=1;" edge="1" parent="1" target="LO8F0YCsVuk2DNSk5QP--14">
          <mxGeometry relative="1" as="geometry">
            <mxPoint x="220" y="530" as="sourcePoint" />
          </mxGeometry>
        </mxCell>
        <mxCell id="LO8F0YCsVuk2DNSk5QP--16" style="edgeStyle=orthogonalEdgeStyle;rounded=0;orthogonalLoop=1;jettySize=auto;html=1;entryX=0.958;entryY=0.431;entryDx=0;entryDy=0;exitX=0.998;exitY=0.59;exitDx=0;exitDy=0;exitPerimeter=0;entryPerimeter=0;" edge="1" parent="1" source="LO8F0YCsVuk2DNSk5QP--14" target="LO8F0YCsVuk2DNSk5QP--6">
          <mxGeometry relative="1" as="geometry">
            <mxPoint x="310" y="500" as="targetPoint" />
            <Array as="points">
              <mxPoint x="280" y="640" />
              <mxPoint x="300" y="640" />
              <mxPoint x="300" y="376" />
            </Array>
          </mxGeometry>
        </mxCell>
        <mxCell id="LO8F0YCsVuk2DNSk5QP--14" value="FORM ERRO" style="whiteSpace=wrap;html=1;" vertex="1" parent="1">
          <mxGeometry x="160" y="610" width="120" height="60" as="geometry" />
        </mxCell>
        <mxCell id="LO8F0YCsVuk2DNSk5QP--22" style="edgeStyle=orthogonalEdgeStyle;rounded=0;orthogonalLoop=1;jettySize=auto;html=1;" edge="1" parent="1" source="LO8F0YCsVuk2DNSk5QP--17" target="LO8F0YCsVuk2DNSk5QP--21">
          <mxGeometry relative="1" as="geometry" />
        </mxCell>
        <mxCell id="LO8F0YCsVuk2DNSk5QP--25" value="S" style="edgeLabel;html=1;align=center;verticalAlign=middle;resizable=0;points=[];" vertex="1" connectable="0" parent="LO8F0YCsVuk2DNSk5QP--22">
          <mxGeometry x="-0.6854" y="-1" relative="1" as="geometry">
            <mxPoint as="offset" />
          </mxGeometry>
        </mxCell>
        <mxCell id="LO8F0YCsVuk2DNSk5QP--17" value="dados corretos?" style="rhombus;whiteSpace=wrap;html=1;" vertex="1" parent="1">
          <mxGeometry x="180" y="490" width="80" height="80" as="geometry" />
        </mxCell>
        <mxCell id="LO8F0YCsVuk2DNSk5QP--19" value="FORM ERRO" style="whiteSpace=wrap;html=1;" vertex="1" parent="1">
          <mxGeometry x="20" y="460" width="120" height="60" as="geometry" />
        </mxCell>
        <mxCell id="LO8F0YCsVuk2DNSk5QP--27" value="" style="edgeStyle=orthogonalEdgeStyle;rounded=0;orthogonalLoop=1;jettySize=auto;html=1;" edge="1" parent="1" source="LO8F0YCsVuk2DNSk5QP--21" target="LO8F0YCsVuk2DNSk5QP--26">
          <mxGeometry relative="1" as="geometry" />
        </mxCell>
        <mxCell id="LO8F0YCsVuk2DNSk5QP--21" value="AddAccount" style="rounded=0;whiteSpace=wrap;html=1;" vertex="1" parent="1">
          <mxGeometry x="20" y="680" width="120" height="60" as="geometry" />
        </mxCell>
        <mxCell id="LO8F0YCsVuk2DNSk5QP--28" style="edgeStyle=orthogonalEdgeStyle;rounded=0;orthogonalLoop=1;jettySize=auto;html=1;" edge="1" parent="1" source="LO8F0YCsVuk2DNSk5QP--26">
          <mxGeometry relative="1" as="geometry">
            <mxPoint x="350" y="170" as="targetPoint" />
            <Array as="points">
              <mxPoint x="350" y="850" />
              <mxPoint x="350" y="170" />
            </Array>
          </mxGeometry>
        </mxCell>
        <mxCell id="LO8F0YCsVuk2DNSk5QP--29" value="S" style="edgeLabel;html=1;align=center;verticalAlign=middle;resizable=0;points=[];" vertex="1" connectable="0" parent="LO8F0YCsVuk2DNSk5QP--28">
          <mxGeometry x="-0.8598" y="1" relative="1" as="geometry">
            <mxPoint as="offset" />
          </mxGeometry>
        </mxCell>
        <mxCell id="LO8F0YCsVuk2DNSk5QP--30" style="edgeStyle=orthogonalEdgeStyle;rounded=0;orthogonalLoop=1;jettySize=auto;html=1;entryX=1;entryY=0.25;entryDx=0;entryDy=0;" edge="1" parent="1" source="LO8F0YCsVuk2DNSk5QP--26" target="LO8F0YCsVuk2DNSk5QP--6">
          <mxGeometry relative="1" as="geometry">
            <Array as="points">
              <mxPoint x="320" y="830" />
              <mxPoint x="320" y="366" />
            </Array>
          </mxGeometry>
        </mxCell>
        <mxCell id="LO8F0YCsVuk2DNSk5QP--31" value="N" style="edgeLabel;html=1;align=center;verticalAlign=middle;resizable=0;points=[];" vertex="1" connectable="0" parent="LO8F0YCsVuk2DNSk5QP--30">
          <mxGeometry x="-0.7577" y="-1" relative="1" as="geometry">
            <mxPoint as="offset" />
          </mxGeometry>
        </mxCell>
        <mxCell id="LO8F0YCsVuk2DNSk5QP--26" value="http 200?" style="rhombus;whiteSpace=wrap;html=1;rounded=0;" vertex="1" parent="1">
          <mxGeometry x="40" y="810" width="80" height="80" as="geometry" />
        </mxCell>
        <mxCell id="LO8F0YCsVuk2DNSk5QP--36" value="S" style="edgeStyle=orthogonalEdgeStyle;rounded=0;orthogonalLoop=1;jettySize=auto;html=1;" edge="1" parent="1" source="LO8F0YCsVuk2DNSk5QP--32" target="LO8F0YCsVuk2DNSk5QP--35">
          <mxGeometry relative="1" as="geometry" />
        </mxCell>
        <mxCell id="LO8F0YCsVuk2DNSk5QP--50" value="N" style="edgeStyle=orthogonalEdgeStyle;rounded=0;orthogonalLoop=1;jettySize=auto;html=1;" edge="1" parent="1" source="LO8F0YCsVuk2DNSk5QP--32" target="LO8F0YCsVuk2DNSk5QP--49">
          <mxGeometry relative="1" as="geometry" />
        </mxCell>
        <mxCell id="LO8F0YCsVuk2DNSk5QP--32" value="Fornecer&lt;br&gt;credenciais" style="rhombus;whiteSpace=wrap;html=1;rounded=0;" vertex="1" parent="1">
          <mxGeometry x="490" y="100" width="80" height="80" as="geometry" />
        </mxCell>
        <mxCell id="LO8F0YCsVuk2DNSk5QP--38" value="" style="edgeStyle=orthogonalEdgeStyle;rounded=0;orthogonalLoop=1;jettySize=auto;html=1;" edge="1" parent="1" source="LO8F0YCsVuk2DNSk5QP--35" target="LO8F0YCsVuk2DNSk5QP--37">
          <mxGeometry relative="1" as="geometry" />
        </mxCell>
        <mxCell id="LO8F0YCsVuk2DNSk5QP--35" value="Submeter&amp;nbsp;" style="whiteSpace=wrap;html=1;rounded=0;" vertex="1" parent="1">
          <mxGeometry x="630" y="110" width="120" height="60" as="geometry" />
        </mxCell>
        <mxCell id="LO8F0YCsVuk2DNSk5QP--40" value="N" style="edgeStyle=orthogonalEdgeStyle;rounded=0;orthogonalLoop=1;jettySize=auto;html=1;" edge="1" parent="1" source="LO8F0YCsVuk2DNSk5QP--37" target="LO8F0YCsVuk2DNSk5QP--39">
          <mxGeometry relative="1" as="geometry" />
        </mxCell>
        <mxCell id="LO8F0YCsVuk2DNSk5QP--45" value="" style="edgeStyle=orthogonalEdgeStyle;rounded=0;orthogonalLoop=1;jettySize=auto;html=1;" edge="1" parent="1" source="LO8F0YCsVuk2DNSk5QP--37" target="LO8F0YCsVuk2DNSk5QP--44">
          <mxGeometry relative="1" as="geometry" />
        </mxCell>
        <mxCell id="LO8F0YCsVuk2DNSk5QP--46" value="S" style="edgeLabel;html=1;align=center;verticalAlign=middle;resizable=0;points=[];" vertex="1" connectable="0" parent="LO8F0YCsVuk2DNSk5QP--45">
          <mxGeometry x="-0.1607" y="1" relative="1" as="geometry">
            <mxPoint as="offset" />
          </mxGeometry>
        </mxCell>
        <mxCell id="LO8F0YCsVuk2DNSk5QP--37" value="Credenciais&lt;br&gt;corretas?" style="rhombus;whiteSpace=wrap;html=1;rounded=0;" vertex="1" parent="1">
          <mxGeometry x="650" y="240" width="80" height="80" as="geometry" />
        </mxCell>
        <mxCell id="LO8F0YCsVuk2DNSk5QP--41" style="edgeStyle=orthogonalEdgeStyle;rounded=0;orthogonalLoop=1;jettySize=auto;html=1;entryX=1;entryY=0.5;entryDx=0;entryDy=0;" edge="1" parent="1" source="LO8F0YCsVuk2DNSk5QP--39" target="LO8F0YCsVuk2DNSk5QP--35">
          <mxGeometry relative="1" as="geometry">
            <Array as="points">
              <mxPoint x="850" y="140" />
            </Array>
          </mxGeometry>
        </mxCell>
        <mxCell id="LO8F0YCsVuk2DNSk5QP--39" value="HTTP 401" style="whiteSpace=wrap;html=1;rounded=0;" vertex="1" parent="1">
          <mxGeometry x="790" y="170" width="120" height="60" as="geometry" />
        </mxCell>
        <mxCell id="LO8F0YCsVuk2DNSk5QP--48" value="" style="edgeStyle=orthogonalEdgeStyle;rounded=0;orthogonalLoop=1;jettySize=auto;html=1;" edge="1" parent="1" source="LO8F0YCsVuk2DNSk5QP--44" target="LO8F0YCsVuk2DNSk5QP--47">
          <mxGeometry relative="1" as="geometry" />
        </mxCell>
        <mxCell id="LO8F0YCsVuk2DNSk5QP--44" value="Escolha de perfil" style="rhombus;whiteSpace=wrap;html=1;rounded=0;" vertex="1" parent="1">
          <mxGeometry x="650" y="400" width="80" height="80" as="geometry" />
        </mxCell>
        <mxCell id="LO8F0YCsVuk2DNSk5QP--52" value="" style="edgeStyle=orthogonalEdgeStyle;rounded=0;orthogonalLoop=1;jettySize=auto;html=1;" edge="1" parent="1" source="LO8F0YCsVuk2DNSk5QP--47" target="LO8F0YCsVuk2DNSk5QP--51">
          <mxGeometry relative="1" as="geometry">
            <Array as="points">
              <mxPoint x="990" y="420" />
            </Array>
          </mxGeometry>
        </mxCell>
        <mxCell id="LO8F0YCsVuk2DNSk5QP--68" value="" style="edgeStyle=orthogonalEdgeStyle;rounded=0;orthogonalLoop=1;jettySize=auto;html=1;" edge="1" parent="1" source="LO8F0YCsVuk2DNSk5QP--47" target="LO8F0YCsVuk2DNSk5QP--67">
          <mxGeometry relative="1" as="geometry" />
        </mxCell>
        <mxCell id="LO8F0YCsVuk2DNSk5QP--126" value="" style="edgeStyle=orthogonalEdgeStyle;rounded=0;orthogonalLoop=1;jettySize=auto;html=1;" edge="1" parent="1" source="LO8F0YCsVuk2DNSk5QP--47" target="LO8F0YCsVuk2DNSk5QP--125">
          <mxGeometry relative="1" as="geometry" />
        </mxCell>
        <mxCell id="LO8F0YCsVuk2DNSk5QP--47" value="Administrator" style="whiteSpace=wrap;html=1;rounded=0;" vertex="1" parent="1">
          <mxGeometry x="790" y="410" width="120" height="60" as="geometry" />
        </mxCell>
        <mxCell id="LO8F0YCsVuk2DNSk5QP--49" value="FORM ERRO" style="whiteSpace=wrap;html=1;rounded=0;" vertex="1" parent="1">
          <mxGeometry x="470" y="270" width="120" height="60" as="geometry" />
        </mxCell>
        <mxCell id="LO8F0YCsVuk2DNSk5QP--58" value="" style="edgeStyle=orthogonalEdgeStyle;rounded=0;orthogonalLoop=1;jettySize=auto;html=1;" edge="1" parent="1" source="LO8F0YCsVuk2DNSk5QP--51" target="LO8F0YCsVuk2DNSk5QP--57">
          <mxGeometry relative="1" as="geometry" />
        </mxCell>
        <mxCell id="LO8F0YCsVuk2DNSk5QP--51" value="Listagem Lavanderias" style="whiteSpace=wrap;html=1;rounded=0;" vertex="1" parent="1">
          <mxGeometry x="930" y="320" width="120" height="60" as="geometry" />
        </mxCell>
        <mxCell id="LO8F0YCsVuk2DNSk5QP--60" value="" style="edgeStyle=orthogonalEdgeStyle;rounded=0;orthogonalLoop=1;jettySize=auto;html=1;" edge="1" parent="1" source="LO8F0YCsVuk2DNSk5QP--57" target="LO8F0YCsVuk2DNSk5QP--59">
          <mxGeometry relative="1" as="geometry" />
        </mxCell>
        <mxCell id="LO8F0YCsVuk2DNSk5QP--57" value="Bloquear/ Desbloquear" style="whiteSpace=wrap;html=1;rounded=0;" vertex="1" parent="1">
          <mxGeometry x="930" y="180" width="120" height="60" as="geometry" />
        </mxCell>
        <mxCell id="LO8F0YCsVuk2DNSk5QP--62" value="" style="edgeStyle=orthogonalEdgeStyle;rounded=0;orthogonalLoop=1;jettySize=auto;html=1;" edge="1" parent="1" source="LO8F0YCsVuk2DNSk5QP--59" target="LO8F0YCsVuk2DNSk5QP--61">
          <mxGeometry relative="1" as="geometry">
            <Array as="points">
              <mxPoint x="1190" y="70" />
            </Array>
          </mxGeometry>
        </mxCell>
        <mxCell id="LO8F0YCsVuk2DNSk5QP--66" value="N" style="edgeLabel;html=1;align=center;verticalAlign=middle;resizable=0;points=[];" vertex="1" connectable="0" parent="LO8F0YCsVuk2DNSk5QP--62">
          <mxGeometry x="-0.254" y="-2" relative="1" as="geometry">
            <mxPoint x="-2" as="offset" />
          </mxGeometry>
        </mxCell>
        <mxCell id="LO8F0YCsVuk2DNSk5QP--65" value="S" style="edgeStyle=orthogonalEdgeStyle;rounded=0;orthogonalLoop=1;jettySize=auto;html=1;" edge="1" parent="1" source="LO8F0YCsVuk2DNSk5QP--59" target="LO8F0YCsVuk2DNSk5QP--64">
          <mxGeometry relative="1" as="geometry" />
        </mxCell>
        <mxCell id="LO8F0YCsVuk2DNSk5QP--59" value="http 200?" style="rhombus;whiteSpace=wrap;html=1;rounded=0;" vertex="1" parent="1">
          <mxGeometry x="1150" y="170" width="80" height="80" as="geometry" />
        </mxCell>
        <mxCell id="LO8F0YCsVuk2DNSk5QP--63" style="edgeStyle=orthogonalEdgeStyle;rounded=0;orthogonalLoop=1;jettySize=auto;html=1;" edge="1" parent="1" source="LO8F0YCsVuk2DNSk5QP--61" target="LO8F0YCsVuk2DNSk5QP--57">
          <mxGeometry relative="1" as="geometry">
            <Array as="points">
              <mxPoint x="990" y="70" />
            </Array>
          </mxGeometry>
        </mxCell>
        <mxCell id="LO8F0YCsVuk2DNSk5QP--61" value="Erro" style="whiteSpace=wrap;html=1;rounded=0;" vertex="1" parent="1">
          <mxGeometry x="1030" y="40" width="120" height="60" as="geometry" />
        </mxCell>
        <mxCell id="LO8F0YCsVuk2DNSk5QP--64" value="success" style="whiteSpace=wrap;html=1;rounded=0;" vertex="1" parent="1">
          <mxGeometry x="1290" y="180" width="120" height="60" as="geometry" />
        </mxCell>
        <mxCell id="LO8F0YCsVuk2DNSk5QP--70" value="" style="edgeStyle=orthogonalEdgeStyle;rounded=0;orthogonalLoop=1;jettySize=auto;html=1;" edge="1" parent="1" source="LO8F0YCsVuk2DNSk5QP--67" target="LO8F0YCsVuk2DNSk5QP--69">
          <mxGeometry relative="1" as="geometry">
            <Array as="points">
              <mxPoint x="1200" y="420" />
            </Array>
          </mxGeometry>
        </mxCell>
        <mxCell id="LO8F0YCsVuk2DNSk5QP--84" value="" style="edgeStyle=orthogonalEdgeStyle;rounded=0;orthogonalLoop=1;jettySize=auto;html=1;" edge="1" parent="1" source="LO8F0YCsVuk2DNSk5QP--67" target="LO8F0YCsVuk2DNSk5QP--83">
          <mxGeometry relative="1" as="geometry">
            <Array as="points">
              <mxPoint x="1140" y="460" />
              <mxPoint x="1140" y="460" />
            </Array>
          </mxGeometry>
        </mxCell>
        <mxCell id="LO8F0YCsVuk2DNSk5QP--112" value="" style="edgeStyle=orthogonalEdgeStyle;rounded=0;orthogonalLoop=1;jettySize=auto;html=1;" edge="1" parent="1" source="LO8F0YCsVuk2DNSk5QP--67" target="LO8F0YCsVuk2DNSk5QP--111">
          <mxGeometry relative="1" as="geometry" />
        </mxCell>
        <mxCell id="LO8F0YCsVuk2DNSk5QP--67" value="Planos&amp;nbsp;" style="whiteSpace=wrap;html=1;rounded=0;" vertex="1" parent="1">
          <mxGeometry x="1010" y="410" width="120" height="60" as="geometry" />
        </mxCell>
        <mxCell id="LO8F0YCsVuk2DNSk5QP--75" value="" style="edgeStyle=orthogonalEdgeStyle;rounded=0;orthogonalLoop=1;jettySize=auto;html=1;" edge="1" parent="1" source="LO8F0YCsVuk2DNSk5QP--69" target="LO8F0YCsVuk2DNSk5QP--74">
          <mxGeometry relative="1" as="geometry" />
        </mxCell>
        <mxCell id="LO8F0YCsVuk2DNSk5QP--69" value="Plano" style="whiteSpace=wrap;html=1;rounded=0;" vertex="1" parent="1">
          <mxGeometry x="1140" y="320" width="120" height="60" as="geometry" />
        </mxCell>
        <mxCell id="LO8F0YCsVuk2DNSk5QP--77" value="" style="edgeStyle=orthogonalEdgeStyle;rounded=0;orthogonalLoop=1;jettySize=auto;html=1;" edge="1" parent="1" source="LO8F0YCsVuk2DNSk5QP--74" target="LO8F0YCsVuk2DNSk5QP--76">
          <mxGeometry relative="1" as="geometry" />
        </mxCell>
        <mxCell id="LO8F0YCsVuk2DNSk5QP--74" value="Editar/Excluir" style="whiteSpace=wrap;html=1;rounded=0;" vertex="1" parent="1">
          <mxGeometry x="1330" y="320" width="120" height="60" as="geometry" />
        </mxCell>
        <mxCell id="LO8F0YCsVuk2DNSk5QP--79" value="S" style="edgeStyle=orthogonalEdgeStyle;rounded=0;orthogonalLoop=1;jettySize=auto;html=1;" edge="1" parent="1" source="LO8F0YCsVuk2DNSk5QP--76" target="LO8F0YCsVuk2DNSk5QP--78">
          <mxGeometry relative="1" as="geometry" />
        </mxCell>
        <mxCell id="LO8F0YCsVuk2DNSk5QP--81" value="N" style="edgeStyle=orthogonalEdgeStyle;rounded=0;orthogonalLoop=1;jettySize=auto;html=1;entryX=0;entryY=0.5;entryDx=0;entryDy=0;" edge="1" parent="1" source="LO8F0YCsVuk2DNSk5QP--76" target="LO8F0YCsVuk2DNSk5QP--80">
          <mxGeometry relative="1" as="geometry" />
        </mxCell>
        <mxCell id="LO8F0YCsVuk2DNSk5QP--76" value="http 200?" style="rhombus;whiteSpace=wrap;html=1;rounded=0;" vertex="1" parent="1">
          <mxGeometry x="1520" y="310" width="80" height="80" as="geometry" />
        </mxCell>
        <mxCell id="LO8F0YCsVuk2DNSk5QP--78" value="success" style="whiteSpace=wrap;html=1;rounded=0;" vertex="1" parent="1">
          <mxGeometry x="1640" y="280" width="120" height="60" as="geometry" />
        </mxCell>
        <mxCell id="LO8F0YCsVuk2DNSk5QP--82" style="edgeStyle=orthogonalEdgeStyle;rounded=0;orthogonalLoop=1;jettySize=auto;html=1;entryX=0.699;entryY=1.003;entryDx=0;entryDy=0;entryPerimeter=0;" edge="1" parent="1" source="LO8F0YCsVuk2DNSk5QP--80" target="LO8F0YCsVuk2DNSk5QP--69">
          <mxGeometry relative="1" as="geometry">
            <Array as="points">
              <mxPoint x="1224" y="400" />
            </Array>
          </mxGeometry>
        </mxCell>
        <mxCell id="LO8F0YCsVuk2DNSk5QP--80" value="Erro" style="rounded=0;whiteSpace=wrap;html=1;" vertex="1" parent="1">
          <mxGeometry x="1640" y="360" width="120" height="60" as="geometry" />
        </mxCell>
        <mxCell id="LO8F0YCsVuk2DNSk5QP--86" value="" style="edgeStyle=orthogonalEdgeStyle;rounded=0;orthogonalLoop=1;jettySize=auto;html=1;" edge="1" parent="1" source="LO8F0YCsVuk2DNSk5QP--83" target="LO8F0YCsVuk2DNSk5QP--85">
          <mxGeometry relative="1" as="geometry" />
        </mxCell>
        <mxCell id="LO8F0YCsVuk2DNSk5QP--83" value="Adicionar Plano Page" style="whiteSpace=wrap;html=1;rounded=0;" vertex="1" parent="1">
          <mxGeometry x="1200" y="490" width="120" height="60" as="geometry" />
        </mxCell>
        <mxCell id="LO8F0YCsVuk2DNSk5QP--88" value="N" style="edgeStyle=orthogonalEdgeStyle;rounded=0;orthogonalLoop=1;jettySize=auto;html=1;" edge="1" parent="1" source="LO8F0YCsVuk2DNSk5QP--85" target="LO8F0YCsVuk2DNSk5QP--87">
          <mxGeometry relative="1" as="geometry" />
        </mxCell>
        <mxCell id="LO8F0YCsVuk2DNSk5QP--92" value="" style="edgeStyle=orthogonalEdgeStyle;rounded=0;orthogonalLoop=1;jettySize=auto;html=1;" edge="1" parent="1" source="LO8F0YCsVuk2DNSk5QP--85" target="LO8F0YCsVuk2DNSk5QP--91">
          <mxGeometry relative="1" as="geometry" />
        </mxCell>
        <mxCell id="LO8F0YCsVuk2DNSk5QP--100" value="S" style="edgeLabel;html=1;align=center;verticalAlign=middle;resizable=0;points=[];" vertex="1" connectable="0" parent="LO8F0YCsVuk2DNSk5QP--92">
          <mxGeometry x="-0.2971" y="-1" relative="1" as="geometry">
            <mxPoint as="offset" />
          </mxGeometry>
        </mxCell>
        <mxCell id="LO8F0YCsVuk2DNSk5QP--85" value="Fornecer infos?" style="rhombus;whiteSpace=wrap;html=1;rounded=0;" vertex="1" parent="1">
          <mxGeometry x="1360" y="480" width="80" height="80" as="geometry" />
        </mxCell>
        <mxCell id="LO8F0YCsVuk2DNSk5QP--87" value="Form Erro" style="whiteSpace=wrap;html=1;rounded=0;" vertex="1" parent="1">
          <mxGeometry x="1340" y="590" width="120" height="60" as="geometry" />
        </mxCell>
        <mxCell id="LO8F0YCsVuk2DNSk5QP--96" value="" style="edgeStyle=orthogonalEdgeStyle;rounded=0;orthogonalLoop=1;jettySize=auto;html=1;" edge="1" parent="1" source="LO8F0YCsVuk2DNSk5QP--91" target="LO8F0YCsVuk2DNSk5QP--95">
          <mxGeometry relative="1" as="geometry" />
        </mxCell>
        <mxCell id="LO8F0YCsVuk2DNSk5QP--91" value="Entrar com informaÃ§Ãµes de &lt;br&gt;plano&lt;br&gt;" style="shape=parallelogram;perimeter=parallelogramPerimeter;whiteSpace=wrap;html=1;fixedSize=1;rounded=0;" vertex="1" parent="1">
          <mxGeometry x="1500" y="490" width="120" height="60" as="geometry" />
        </mxCell>
        <mxCell id="LO8F0YCsVuk2DNSk5QP--98" value="N" style="edgeStyle=orthogonalEdgeStyle;rounded=0;orthogonalLoop=1;jettySize=auto;html=1;" edge="1" parent="1" source="LO8F0YCsVuk2DNSk5QP--95" target="LO8F0YCsVuk2DNSk5QP--97">
          <mxGeometry relative="1" as="geometry" />
        </mxCell>
        <mxCell id="LO8F0YCsVuk2DNSk5QP--106" value="S" style="edgeStyle=orthogonalEdgeStyle;rounded=0;orthogonalLoop=1;jettySize=auto;html=1;" edge="1" parent="1" source="LO8F0YCsVuk2DNSk5QP--95" target="LO8F0YCsVuk2DNSk5QP--105">
          <mxGeometry relative="1" as="geometry" />
        </mxCell>
        <mxCell id="LO8F0YCsVuk2DNSk5QP--95" value="InformaÃ§Ãµes corretas?" style="rhombus;whiteSpace=wrap;html=1;rounded=0;" vertex="1" parent="1">
          <mxGeometry x="1520" y="620" width="80" height="80" as="geometry" />
        </mxCell>
        <mxCell id="LO8F0YCsVuk2DNSk5QP--99" style="edgeStyle=orthogonalEdgeStyle;rounded=0;orthogonalLoop=1;jettySize=auto;html=1;entryX=0.928;entryY=0.434;entryDx=0;entryDy=0;entryPerimeter=0;" edge="1" parent="1" source="LO8F0YCsVuk2DNSk5QP--97" target="LO8F0YCsVuk2DNSk5QP--91">
          <mxGeometry relative="1" as="geometry">
            <Array as="points">
              <mxPoint x="1720" y="516" />
            </Array>
          </mxGeometry>
        </mxCell>
        <mxCell id="LO8F0YCsVuk2DNSk5QP--97" value="HTTP 401" style="whiteSpace=wrap;html=1;rounded=0;" vertex="1" parent="1">
          <mxGeometry x="1660" y="630" width="120" height="60" as="geometry" />
        </mxCell>
        <mxCell id="LO8F0YCsVuk2DNSk5QP--110" style="edgeStyle=orthogonalEdgeStyle;rounded=0;orthogonalLoop=1;jettySize=auto;html=1;" edge="1" parent="1" source="LO8F0YCsVuk2DNSk5QP--105" target="LO8F0YCsVuk2DNSk5QP--67">
          <mxGeometry relative="1" as="geometry">
            <Array as="points">
              <mxPoint x="1800" y="790" />
              <mxPoint x="1800" y="440" />
            </Array>
          </mxGeometry>
        </mxCell>
        <mxCell id="LO8F0YCsVuk2DNSk5QP--105" value="addPlan" style="shape=process;whiteSpace=wrap;html=1;backgroundOutline=1;rounded=0;" vertex="1" parent="1">
          <mxGeometry x="1500" y="760" width="120" height="60" as="geometry" />
        </mxCell>
        <mxCell id="LO8F0YCsVuk2DNSk5QP--114" value="" style="edgeStyle=orthogonalEdgeStyle;rounded=0;orthogonalLoop=1;jettySize=auto;html=1;" edge="1" parent="1" source="LO8F0YCsVuk2DNSk5QP--111" target="LO8F0YCsVuk2DNSk5QP--113">
          <mxGeometry relative="1" as="geometry" />
        </mxCell>
        <mxCell id="LO8F0YCsVuk2DNSk5QP--111" value="Gerenciamento de tarifas Page" style="whiteSpace=wrap;html=1;rounded=0;" vertex="1" parent="1">
          <mxGeometry x="1010" y="530" width="120" height="60" as="geometry" />
        </mxCell>
        <mxCell id="LO8F0YCsVuk2DNSk5QP--116" value="" style="edgeStyle=orthogonalEdgeStyle;rounded=0;orthogonalLoop=1;jettySize=auto;html=1;" edge="1" parent="1" source="LO8F0YCsVuk2DNSk5QP--113" target="LO8F0YCsVuk2DNSk5QP--115">
          <mxGeometry relative="1" as="geometry" />
        </mxCell>
        <mxCell id="LO8F0YCsVuk2DNSk5QP--113" value="Entrada de &lt;br&gt;valores" style="shape=parallelogram;perimeter=parallelogramPerimeter;whiteSpace=wrap;html=1;fixedSize=1;rounded=0;" vertex="1" parent="1">
          <mxGeometry x="1010" y="640" width="120" height="60" as="geometry" />
        </mxCell>
        <mxCell id="LO8F0YCsVuk2DNSk5QP--119" style="edgeStyle=orthogonalEdgeStyle;rounded=0;orthogonalLoop=1;jettySize=auto;html=1;entryX=0;entryY=0.75;entryDx=0;entryDy=0;" edge="1" parent="1" source="LO8F0YCsVuk2DNSk5QP--115" target="LO8F0YCsVuk2DNSk5QP--67">
          <mxGeometry relative="1" as="geometry">
            <Array as="points">
              <mxPoint x="990" y="800" />
              <mxPoint x="990" y="455" />
            </Array>
          </mxGeometry>
        </mxCell>
        <mxCell id="LO8F0YCsVuk2DNSk5QP--120" value="S" style="edgeLabel;html=1;align=center;verticalAlign=middle;resizable=0;points=[];" vertex="1" connectable="0" parent="LO8F0YCsVuk2DNSk5QP--119">
          <mxGeometry x="-0.7737" y="-2" relative="1" as="geometry">
            <mxPoint as="offset" />
          </mxGeometry>
        </mxCell>
        <mxCell id="LO8F0YCsVuk2DNSk5QP--123" value="N" style="edgeStyle=orthogonalEdgeStyle;rounded=0;orthogonalLoop=1;jettySize=auto;html=1;" edge="1" parent="1" source="LO8F0YCsVuk2DNSk5QP--115" target="LO8F0YCsVuk2DNSk5QP--122">
          <mxGeometry relative="1" as="geometry">
            <Array as="points">
              <mxPoint x="1220" y="800" />
            </Array>
          </mxGeometry>
        </mxCell>
        <mxCell id="LO8F0YCsVuk2DNSk5QP--115" value="success?" style="rhombus;whiteSpace=wrap;html=1;rounded=0;" vertex="1" parent="1">
          <mxGeometry x="1030" y="760" width="80" height="80" as="geometry" />
        </mxCell>
        <mxCell id="LO8F0YCsVuk2DNSk5QP--124" style="edgeStyle=orthogonalEdgeStyle;rounded=0;orthogonalLoop=1;jettySize=auto;html=1;entryX=1;entryY=0.5;entryDx=0;entryDy=0;" edge="1" parent="1" source="LO8F0YCsVuk2DNSk5QP--122" target="LO8F0YCsVuk2DNSk5QP--113">
          <mxGeometry relative="1" as="geometry">
            <Array as="points">
              <mxPoint x="1220" y="670" />
            </Array>
          </mxGeometry>
        </mxCell>
        <mxCell id="LO8F0YCsVuk2DNSk5QP--122" value="HTTP 400" style="whiteSpace=wrap;html=1;rounded=0;" vertex="1" parent="1">
          <mxGeometry x="1160" y="710" width="120" height="60" as="geometry" />
        </mxCell>
        <mxCell id="LO8F0YCsVuk2DNSk5QP--128" value="" style="edgeStyle=orthogonalEdgeStyle;rounded=0;orthogonalLoop=1;jettySize=auto;html=1;" edge="1" parent="1" source="LO8F0YCsVuk2DNSk5QP--125" target="LO8F0YCsVuk2DNSk5QP--127">
          <mxGeometry relative="1" as="geometry" />
        </mxCell>
        <mxCell id="LO8F0YCsVuk2DNSk5QP--125" value="Categories Page" style="whiteSpace=wrap;html=1;rounded=0;" vertex="1" parent="1">
          <mxGeometry x="790" y="550" width="120" height="60" as="geometry" />
        </mxCell>
        <mxCell id="LO8F0YCsVuk2DNSk5QP--130" value="" style="edgeStyle=orthogonalEdgeStyle;rounded=0;orthogonalLoop=1;jettySize=auto;html=1;" edge="1" parent="1" source="LO8F0YCsVuk2DNSk5QP--127" target="LO8F0YCsVuk2DNSk5QP--129">
          <mxGeometry relative="1" as="geometry">
            <mxPoint x="800" y="820" as="targetPoint" />
            <Array as="points">
              <mxPoint x="790" y="770" />
              <mxPoint x="790" y="770" />
            </Array>
          </mxGeometry>
        </mxCell>
        <mxCell id="LO8F0YCsVuk2DNSk5QP--154" style="edgeStyle=orthogonalEdgeStyle;rounded=0;orthogonalLoop=1;jettySize=auto;html=1;entryX=0.429;entryY=0.167;entryDx=0;entryDy=0;entryPerimeter=0;" edge="1" parent="1" source="LO8F0YCsVuk2DNSk5QP--127" target="LO8F0YCsVuk2DNSk5QP--155">
          <mxGeometry relative="1" as="geometry">
            <mxPoint x="960" y="850" as="targetPoint" />
          </mxGeometry>
        </mxCell>
        <mxCell id="LO8F0YCsVuk2DNSk5QP--177" style="edgeStyle=orthogonalEdgeStyle;rounded=0;orthogonalLoop=1;jettySize=auto;html=1;" edge="1" parent="1" source="LO8F0YCsVuk2DNSk5QP--127" target="LO8F0YCsVuk2DNSk5QP--176">
          <mxGeometry relative="1" as="geometry">
            <Array as="points">
              <mxPoint x="900" y="770" />
              <mxPoint x="900" y="770" />
            </Array>
          </mxGeometry>
        </mxCell>
        <mxCell id="LO8F0YCsVuk2DNSk5QP--127" value="Categoria" style="whiteSpace=wrap;html=1;rounded=0;" vertex="1" parent="1">
          <mxGeometry x="790" y="690" width="120" height="60" as="geometry" />
        </mxCell>
        <mxCell id="LO8F0YCsVuk2DNSk5QP--135" value="" style="edgeStyle=orthogonalEdgeStyle;rounded=0;orthogonalLoop=1;jettySize=auto;html=1;" edge="1" parent="1" source="LO8F0YCsVuk2DNSk5QP--129" target="LO8F0YCsVuk2DNSk5QP--134">
          <mxGeometry relative="1" as="geometry" />
        </mxCell>
        <mxCell id="LO8F0YCsVuk2DNSk5QP--129" value="Editar/Excluir" style="whiteSpace=wrap;html=1;rounded=0;" vertex="1" parent="1">
          <mxGeometry x="730" y="830" width="120" height="60" as="geometry" />
        </mxCell>
        <mxCell id="LO8F0YCsVuk2DNSk5QP--138" style="edgeStyle=orthogonalEdgeStyle;rounded=0;orthogonalLoop=1;jettySize=auto;html=1;entryX=0;entryY=0.5;entryDx=0;entryDy=0;" edge="1" parent="1" source="LO8F0YCsVuk2DNSk5QP--134" target="LO8F0YCsVuk2DNSk5QP--127">
          <mxGeometry relative="1" as="geometry">
            <Array as="points">
              <mxPoint x="690" y="990" />
              <mxPoint x="690" y="720" />
            </Array>
          </mxGeometry>
        </mxCell>
        <mxCell id="LO8F0YCsVuk2DNSk5QP--140" value="N" style="edgeLabel;html=1;align=center;verticalAlign=middle;resizable=0;points=[];" vertex="1" connectable="0" parent="LO8F0YCsVuk2DNSk5QP--138">
          <mxGeometry x="0.0254" y="1" relative="1" as="geometry">
            <mxPoint as="offset" />
          </mxGeometry>
        </mxCell>
        <mxCell id="LO8F0YCsVuk2DNSk5QP--174" style="edgeStyle=orthogonalEdgeStyle;rounded=0;orthogonalLoop=1;jettySize=auto;html=1;entryX=0.438;entryY=-0.01;entryDx=0;entryDy=0;entryPerimeter=0;" edge="1" parent="1" source="LO8F0YCsVuk2DNSk5QP--134" target="LO8F0YCsVuk2DNSk5QP--150">
          <mxGeometry relative="1" as="geometry" />
        </mxCell>
        <mxCell id="LO8F0YCsVuk2DNSk5QP--175" value="S" style="edgeLabel;html=1;align=center;verticalAlign=middle;resizable=0;points=[];" vertex="1" connectable="0" parent="LO8F0YCsVuk2DNSk5QP--174">
          <mxGeometry x="-0.2957" y="2" relative="1" as="geometry">
            <mxPoint as="offset" />
          </mxGeometry>
        </mxCell>
        <mxCell id="LO8F0YCsVuk2DNSk5QP--134" value="Confirm?" style="rhombus;whiteSpace=wrap;html=1;rounded=0;" vertex="1" parent="1">
          <mxGeometry x="750" y="940" width="80" height="80" as="geometry" />
        </mxCell>
        <mxCell id="LO8F0YCsVuk2DNSk5QP--150" value="SUCCESS" style="ellipse;whiteSpace=wrap;html=1;" vertex="1" parent="1">
          <mxGeometry x="740" y="1110" width="120" height="80" as="geometry" />
        </mxCell>
        <mxCell id="LO8F0YCsVuk2DNSk5QP--157" value="" style="edgeStyle=orthogonalEdgeStyle;rounded=0;orthogonalLoop=1;jettySize=auto;html=1;" edge="1" parent="1" source="LO8F0YCsVuk2DNSk5QP--155" target="LO8F0YCsVuk2DNSk5QP--156">
          <mxGeometry relative="1" as="geometry" />
        </mxCell>
        <mxCell id="LO8F0YCsVuk2DNSk5QP--155" value="Add Product" style="rounded=0;whiteSpace=wrap;html=1;" vertex="1" parent="1">
          <mxGeometry x="930" y="900" width="70" height="60" as="geometry" />
        </mxCell>
        <mxCell id="LO8F0YCsVuk2DNSk5QP--159" value="" style="edgeStyle=orthogonalEdgeStyle;rounded=0;orthogonalLoop=1;jettySize=auto;html=1;" edge="1" parent="1" source="LO8F0YCsVuk2DNSk5QP--156" target="LO8F0YCsVuk2DNSk5QP--158">
          <mxGeometry relative="1" as="geometry" />
        </mxCell>
        <mxCell id="LO8F0YCsVuk2DNSk5QP--156" value="Entrar com informaÃ§Ãµes do produto" style="shape=parallelogram;perimeter=parallelogramPerimeter;whiteSpace=wrap;html=1;fixedSize=1;rounded=0;" vertex="1" parent="1">
          <mxGeometry x="1040" y="900" width="120" height="60" as="geometry" />
        </mxCell>
        <mxCell id="LO8F0YCsVuk2DNSk5QP--161" value="" style="edgeStyle=orthogonalEdgeStyle;rounded=0;orthogonalLoop=1;jettySize=auto;html=1;" edge="1" parent="1" source="LO8F0YCsVuk2DNSk5QP--158" target="LO8F0YCsVuk2DNSk5QP--160">
          <mxGeometry relative="1" as="geometry" />
        </mxCell>
        <mxCell id="LO8F0YCsVuk2DNSk5QP--164" value="Text" style="edgeLabel;html=1;align=center;verticalAlign=middle;resizable=0;points=[];" vertex="1" connectable="0" parent="LO8F0YCsVuk2DNSk5QP--161">
          <mxGeometry x="-0.281" y="2" relative="1" as="geometry">
            <mxPoint as="offset" />
          </mxGeometry>
        </mxCell>
        <mxCell id="LO8F0YCsVuk2DNSk5QP--168" value="" style="edgeStyle=orthogonalEdgeStyle;rounded=0;orthogonalLoop=1;jettySize=auto;html=1;" edge="1" parent="1" source="LO8F0YCsVuk2DNSk5QP--158" target="LO8F0YCsVuk2DNSk5QP--167">
          <mxGeometry relative="1" as="geometry" />
        </mxCell>
        <mxCell id="LO8F0YCsVuk2DNSk5QP--158" value="dados estÃ£o corretos?" style="rhombus;whiteSpace=wrap;html=1;rounded=0;" vertex="1" parent="1">
          <mxGeometry x="1060" y="1030" width="80" height="80" as="geometry" />
        </mxCell>
        <mxCell id="LO8F0YCsVuk2DNSk5QP--163" style="edgeStyle=orthogonalEdgeStyle;rounded=0;orthogonalLoop=1;jettySize=auto;html=1;" edge="1" parent="1" source="LO8F0YCsVuk2DNSk5QP--160" target="LO8F0YCsVuk2DNSk5QP--156">
          <mxGeometry relative="1" as="geometry">
            <Array as="points">
              <mxPoint x="1240" y="930" />
            </Array>
          </mxGeometry>
        </mxCell>
        <mxCell id="LO8F0YCsVuk2DNSk5QP--160" value="Form Error" style="whiteSpace=wrap;html=1;rounded=0;" vertex="1" parent="1">
          <mxGeometry x="1200" y="1040" width="120" height="60" as="geometry" />
        </mxCell>
        <mxCell id="LO8F0YCsVuk2DNSk5QP--170" value="" style="edgeStyle=orthogonalEdgeStyle;rounded=0;orthogonalLoop=1;jettySize=auto;html=1;" edge="1" parent="1" source="LO8F0YCsVuk2DNSk5QP--167" target="LO8F0YCsVuk2DNSk5QP--169">
          <mxGeometry relative="1" as="geometry" />
        </mxCell>
        <mxCell id="LO8F0YCsVuk2DNSk5QP--167" value="addProduct" style="shape=process;whiteSpace=wrap;html=1;backgroundOutline=1;rounded=0;" vertex="1" parent="1">
          <mxGeometry x="1040" y="1200" width="120" height="60" as="geometry" />
        </mxCell>
        <mxCell id="LO8F0YCsVuk2DNSk5QP--172" value="" style="edgeStyle=orthogonalEdgeStyle;rounded=0;orthogonalLoop=1;jettySize=auto;html=1;" edge="1" parent="1" source="LO8F0YCsVuk2DNSk5QP--169" target="LO8F0YCsVuk2DNSk5QP--171">
          <mxGeometry relative="1" as="geometry" />
        </mxCell>
        <mxCell id="LO8F0YCsVuk2DNSk5QP--173" style="edgeStyle=orthogonalEdgeStyle;rounded=0;orthogonalLoop=1;jettySize=auto;html=1;" edge="1" parent="1" source="LO8F0YCsVuk2DNSk5QP--169" target="LO8F0YCsVuk2DNSk5QP--156">
          <mxGeometry relative="1" as="geometry">
            <Array as="points">
              <mxPoint x="1020" y="1370" />
              <mxPoint x="1020" y="950" />
            </Array>
          </mxGeometry>
        </mxCell>
        <mxCell id="LO8F0YCsVuk2DNSk5QP--169" value="success?" style="rhombus;whiteSpace=wrap;html=1;rounded=0;" vertex="1" parent="1">
          <mxGeometry x="1060" y="1330" width="80" height="80" as="geometry" />
        </mxCell>
        <mxCell id="LO8F0YCsVuk2DNSk5QP--171" value="suceess" style="ellipse;whiteSpace=wrap;html=1;rounded=0;" vertex="1" parent="1">
          <mxGeometry x="1200" y="1330" width="120" height="80" as="geometry" />
        </mxCell>
        <mxCell id="LO8F0YCsVuk2DNSk5QP--179" value="" style="edgeStyle=orthogonalEdgeStyle;rounded=0;orthogonalLoop=1;jettySize=auto;html=1;" edge="1" parent="1" source="LO8F0YCsVuk2DNSk5QP--176" target="LO8F0YCsVuk2DNSk5QP--178">
          <mxGeometry relative="1" as="geometry" />
        </mxCell>
        <mxCell id="LO8F0YCsVuk2DNSk5QP--176" value="Remove Product" style="rounded=0;whiteSpace=wrap;html=1;" vertex="1" parent="1">
          <mxGeometry x="840" y="1200" width="120" height="60" as="geometry" />
        </mxCell>
        <mxCell id="LO8F0YCsVuk2DNSk5QP--183" value="S" style="edgeStyle=orthogonalEdgeStyle;rounded=0;orthogonalLoop=1;jettySize=auto;html=1;" edge="1" parent="1" source="LO8F0YCsVuk2DNSk5QP--178" target="LO8F0YCsVuk2DNSk5QP--182">
          <mxGeometry relative="1" as="geometry" />
        </mxCell>
        <mxCell id="LO8F0YCsVuk2DNSk5QP--178" value="confirm?" style="rhombus;whiteSpace=wrap;html=1;rounded=0;" vertex="1" parent="1">
          <mxGeometry x="860" y="1290" width="80" height="80" as="geometry" />
        </mxCell>
        <mxCell id="LO8F0YCsVuk2DNSk5QP--182" value="deletProduc" style="shape=process;whiteSpace=wrap;html=1;backgroundOutline=1;rounded=0;" vertex="1" parent="1">
          <mxGeometry x="840" y="1420" width="120" height="60" as="geometry" />
        </mxCell>
      </root>
    </mxGraphModel>
  </diagram>
</mxfile>
